<svg width="4758" height="2011" viewBox="0 0 4758 2011" fill="none" xmlns="http://www.w3.org/2000/svg" style="background-color:#FFFFFF">
<g clip-path="url(#clip0_27_21)">
<path fill-rule="evenodd" clip-rule="evenodd" d="M972.42 31.0368C972.569 29.8745 972.646 28.6895 972.645 27.4865C972.637 12.2986 960.319 -0.00746771 945.131 3.40003e-06L177.926 0.377403C162.738 0.384874 150.432 12.7031 150.44 27.8909C150.44 28.9682 150.503 30.0309 150.624 31.0758C150.508 32.1832 150.458 33.3096 150.478 34.4512L151.776 109.165C151.802 110.683 151.951 112.17 152.213 113.617C152.496 120.062 155.036 126.435 159.858 131.452L474.298 458.634C478.235 465.876 485.323 471.145 493.696 472.62C497.43 473.525 501.321 473.64 505.099 472.959L914.405 467.934L913.9 541.183L547.435 540.766C539.52 540.758 532.382 544.093 527.358 549.44C522.566 554.361 519.6 561.074 519.563 568.486L517.874 909.223L453.313 909.286L457.744 529.61C457.802 524.723 456.58 520.119 454.392 516.116C453.164 513.454 451.486 510.945 449.356 508.701L111.463 152.803C107.125 148.235 101.592 145.484 95.8162 144.574C86.3685 142.313 76.0104 145.137 69.0221 152.839L9.47835 218.468C9.09214 218.894 8.72175 219.328 8.36716 219.771C3.8508 224.664 1.08872 231.202 1.08071 238.386L0.306187 933.083C0.103206 934.435 -0.00135926 935.819 1.33403e-05 937.228C0.00675891 944.151 2.57083 950.474 6.79793 955.304C11.8356 961.258 19.3601 965.042 27.7706 965.051C29.2888 965.053 30.7784 964.932 32.23 964.697L397.666 964.341L396.875 1032.12L37.2951 1029.06C22.1078 1028.93 9.69155 1041.14 9.56256 1056.33C9.55691 1056.99 9.57495 1057.65 9.61589 1058.31L9.1945 1117.78C9.12092 1128.16 14.8132 1137.24 23.2761 1141.98L329.789 1434.26C337.704 1441.81 348.946 1443.71 358.532 1440.07C362.699 1438.69 366.595 1436.29 369.823 1432.88L437.458 1361.4C437.549 1361.31 437.639 1361.21 437.727 1361.12C437.809 1361.03 437.891 1360.94 437.971 1360.85C438.15 1360.65 438.325 1360.45 438.497 1360.24C444.404 1355.27 448.193 1347.85 448.291 1339.52L451.231 1087.58L516.988 1088.14L515.11 1466.95C515.082 1472.6 516.761 1477.86 519.662 1482.24C524.415 1490.46 533.297 1495.99 543.473 1496L1342.02 1496.35C1351.85 1496.36 1360.48 1491.2 1365.34 1483.44C1365.36 1483.43 1365.37 1483.42 1365.38 1483.4C1376.32 1472.87 1376.66 1455.46 1366.13 1444.52L983.763 1047.18C980.91 1044.22 977.552 1042.03 973.955 1040.63C969.956 1038.3 965.314 1036.95 960.355 1036.9L572.259 1033.61L572.603 964.17L938.185 963.814C952.269 963.8 963.871 953.2 965.47 939.547C965.931 937.58 966.182 935.531 966.197 933.426L968.522 596.245L1026.26 596.311L1022.86 998.409C1022.78 1007.92 1027.54 1016.34 1034.83 1021.34C1035.65 1022.43 1036.56 1023.47 1037.55 1024.46L1346.11 1328.69C1356.92 1339.35 1374.33 1339.23 1385 1328.41C1386.13 1327.27 1387.14 1326.05 1388.02 1324.77C1390.93 1323.72 1393.7 1322.17 1396.22 1320.09L1456.08 1270.56C1456.44 1270.27 1456.78 1269.97 1457.12 1269.67C1464.87 1264.84 1470.05 1256.25 1470.1 1246.44L1473.25 571.965C1473.33 571.094 1473.37 570.212 1473.38 569.319C1473.38 566.2 1472.86 563.203 1471.91 560.408C1468.33 549.445 1458.05 541.5 1445.89 541.443C1444.37 541.436 1442.88 541.552 1441.43 541.782L1081.73 541.374L1082.37 465.872L1491.4 460.85C1506.58 460.663 1518.73 448.201 1518.53 433.015C1518.52 432.163 1518.47 431.322 1518.38 430.491C1519.63 422.562 1517.2 414.175 1511.02 407.886L1187.74 78.6228C1177.1 67.7854 1159.36 67.2828 1148.13 77.5002L1147.51 78.0624C1145.09 79.4721 1142.85 81.2783 1140.88 83.4757L1037.36 198.932C1034.29 202.354 1032.24 206.333 1031.18 210.499C1030.09 213.427 1029.48 216.592 1029.45 219.9L1027.83 411.537L969.791 412.249L972.42 31.0368ZM950.388 1091.82L571.986 1088.61L570.239 1441.01L1286.72 1441.33L950.388 1091.82ZM511.411 417.877L914.785 412.925L917.253 55.0137L205.849 55.3637L206.638 100.754L511.411 417.877ZM968.901 541.245L969.411 467.259L1027.36 466.547L1026.73 541.311L968.901 541.245ZM574.429 595.797L913.521 596.182L911.365 908.84L572.875 909.17L574.429 595.797ZM517.602 964.224L452.671 964.287L451.873 1032.58L517.26 1033.14L517.602 964.224ZM398.308 909.34L402.627 539.363L90.6923 210.807L56.0689 248.969L55.3323 909.674L398.308 909.34ZM396.233 1087.11L64.4331 1084.3L64.2858 1105.09L348.144 1375.77L393.422 1327.92L396.233 1087.11ZM1081.27 596.373L1077.96 987.058L1367.46 1272.5L1415.16 1233.04L1418.13 596.756L1081.27 596.373ZM1082.84 410.861L1431.25 406.584L1166.66 137.105L1084.38 228.885L1082.84 410.861Z" fill="black"/>
<path fill-rule="evenodd" clip-rule="evenodd" d="M3012.07 485.199L2846.23 586.711L2846.24 827.741L3433.9 827.429L3433.83 744.241C3433.82 729.053 3446.12 716.731 3461.31 716.718L3534.79 716.658C3549.98 716.645 3562.3 728.947 3562.31 744.135L3562.38 827.361L3658.84 827.31C3674.03 827.301 3686.35 839.607 3686.36 854.795L3686.4 928.274C3686.4 943.461 3674.1 955.78 3658.91 955.788L3562.49 955.839L3562.79 1319.35C3562.8 1334.54 3550.5 1346.86 3535.31 1346.88L3461.83 1346.94C3458.96 1346.94 3456.2 1346.5 3453.59 1345.69L2881.52 1344.05C2871.17 1348.29 2858.84 1345.91 2850.84 1337.19L2731.21 1206.82C2723.17 1202.02 2717.78 1193.24 2717.78 1183.19L2717.76 866.167V855.309C2717.76 855.125 2717.76 854.942 2717.76 854.758L2717.74 528.982C2717.74 516.438 2726.14 505.855 2737.62 502.55L2972.07 359.049C2979.56 354.465 2988.37 353.893 2996.01 356.728L3483.54 356.488C3498.73 356.481 3511.04 368.787 3511.05 383.975L3511.09 457.453C3511.09 472.641 3498.79 484.959 3483.6 484.967L3012.07 485.199ZM2846.26 1142.17L2846.25 956.22L3434.01 955.908L3434.22 1217.15L2913.7 1215.67L2846.26 1142.17ZM2616 457.453C2616 472.641 2603.7 484.959 2588.51 484.967L1880.07 485.315L1787.69 633.453L1792.26 1157.44L1890.37 1243.83L2588.45 1243.49C2603.63 1243.48 2615.95 1255.79 2615.96 1270.97L2616 1344.45C2616 1359.64 2603.7 1371.96 2588.51 1371.97L1867.17 1372.32C1857.53 1376.93 1845.66 1375.65 1837.13 1368.15L1672.38 1223.07C1664.16 1215.83 1661.29 1204.77 1664.1 1194.9L1658.98 607.093C1658.93 601.114 1660.79 595.564 1663.99 591.023C1664.68 588.613 1665.71 586.256 1667.11 584.023L1796.95 375.809C1797.73 374.558 1798.59 373.391 1799.53 372.311C1803.99 363.169 1813.38 356.869 1824.24 356.864L2588.45 356.488C2603.63 356.481 2615.95 368.787 2615.96 383.975L2616 457.453ZM4070.19 488.318L3949.97 575.051L3948.27 778.725L4557.57 780.04L4632.36 692.902V488.02L4070.19 488.318ZM4757.63 727.589C4758.44 731.362 4758.44 735.283 4757.63 739.079V740.408H4757.32C4756.29 744.282 4754.39 747.99 4751.61 751.236L4685.51 828.25L4737.4 888.906C4742.7 895.106 4744.76 902.985 4743.75 910.48L4750.56 1347.43C4750.8 1362.62 4738.68 1375.12 4723.49 1375.36L4650.02 1376.5C4634.84 1376.74 4622.34 1364.62 4622.1 1349.43L4615.78 944.39L4585.15 908.578L3947.2 907.202L3943.51 1349.81C3943.39 1365 3930.97 1377.21 3915.78 1377.08L3842.31 1376.47C3827.12 1376.34 3814.91 1363.93 3815.04 1348.74L3821.91 524.974C3821.93 522.468 3822.28 520.043 3822.93 517.742C3824.16 510.997 3827.9 504.7 3833.89 500.372L4022.13 364.565C4028.52 359.953 4036.22 358.484 4043.4 359.859C4043.57 359.856 4043.73 359.854 4043.9 359.854L4632.36 359.541V359.315H4757.63V727.589Z" fill="black"/>
<path d="M346.717 1776.36C345.439 1765.57 340.254 1757.19 331.163 1751.22C322.072 1745.26 310.922 1742.27 297.711 1742.27C288.052 1742.27 279.601 1743.84 272.356 1746.96C265.183 1750.09 259.572 1754.38 255.524 1759.85C251.547 1765.32 249.558 1771.53 249.558 1778.49C249.558 1784.32 250.943 1789.33 253.713 1793.52C256.554 1797.63 260.176 1801.08 264.579 1803.85C268.983 1806.55 273.599 1808.79 278.429 1810.56C283.258 1812.27 287.697 1813.65 291.746 1814.72L313.905 1820.68C319.586 1822.17 325.907 1824.23 332.868 1826.86C339.899 1829.49 346.611 1833.08 353.003 1837.62C359.466 1842.1 364.792 1847.85 368.983 1854.88C373.173 1861.91 375.268 1870.54 375.268 1880.77C375.268 1892.56 372.179 1903.21 366 1912.73C359.892 1922.24 350.943 1929.81 339.153 1935.42C327.434 1941.03 313.194 1943.84 296.433 1943.84C280.808 1943.84 267.278 1941.31 255.844 1936.27C244.48 1931.23 235.531 1924.2 228.997 1915.18C222.534 1906.16 218.876 1895.68 218.024 1883.75H245.297C246.007 1891.99 248.777 1898.81 253.606 1904.2C258.507 1909.53 264.686 1913.51 272.143 1916.14C279.672 1918.69 287.768 1919.97 296.433 1919.97C306.518 1919.97 315.574 1918.34 323.599 1915.07C331.625 1911.73 337.981 1907.12 342.669 1901.22C347.356 1895.26 349.7 1888.3 349.7 1880.34C349.7 1873.1 347.676 1867.2 343.628 1862.66C339.579 1858.11 334.253 1854.42 327.648 1851.58C321.042 1848.74 313.905 1846.25 306.234 1844.12L279.388 1836.45C262.342 1831.55 248.848 1824.55 238.905 1815.46C228.961 1806.37 223.99 1794.47 223.99 1779.77C223.99 1767.56 227.292 1756.9 233.898 1747.81C240.574 1738.65 249.523 1731.55 260.744 1726.51C272.037 1721.39 284.643 1718.84 298.564 1718.84C312.626 1718.84 325.126 1721.36 336.064 1726.4C347.001 1731.37 355.666 1738.19 362.058 1746.85C368.521 1755.52 371.93 1765.36 372.285 1776.36H346.717ZM602.798 1830.91C602.798 1853.92 598.644 1873.81 590.334 1890.57C582.024 1907.33 570.625 1920.26 556.137 1929.35C541.648 1938.44 525.1 1942.98 506.492 1942.98C487.884 1942.98 471.335 1938.44 456.847 1929.35C442.358 1920.26 430.959 1907.33 422.649 1890.57C414.34 1873.81 410.185 1853.92 410.185 1830.91C410.185 1807.9 414.34 1788.01 422.649 1771.25C430.959 1754.49 442.358 1741.56 456.847 1732.47C471.335 1723.38 487.884 1718.84 506.492 1718.84C525.1 1718.84 541.648 1723.38 556.137 1732.47C570.625 1741.56 582.024 1754.49 590.334 1771.25C598.644 1788.01 602.798 1807.9 602.798 1830.91ZM577.23 1830.91C577.23 1812.02 574.07 1796.07 567.749 1783.08C561.499 1770.08 553.012 1760.24 542.287 1753.57C531.634 1746.89 519.702 1743.55 506.492 1743.55C493.281 1743.55 481.314 1746.89 470.59 1753.57C459.936 1760.24 451.449 1770.08 445.128 1783.08C438.878 1796.07 435.753 1812.02 435.753 1830.91C435.753 1849.8 438.878 1865.75 445.128 1878.74C451.449 1891.74 459.936 1901.58 470.59 1908.25C481.314 1914.93 493.281 1918.27 506.492 1918.27C519.702 1918.27 531.634 1914.93 542.287 1908.25C553.012 1901.58 561.499 1891.74 567.749 1878.74C574.07 1865.75 577.23 1849.8 577.23 1830.91ZM647.223 1940V1721.82H673.644V1916.56H775.064V1940H647.223ZM959.155 1721.82H985.575V1866.28C985.575 1881.19 982.06 1894.51 975.029 1906.23C968.068 1917.88 958.232 1927.07 945.519 1933.82C932.806 1940.5 917.891 1943.84 900.774 1943.84C883.658 1943.84 868.743 1940.5 856.03 1933.82C843.317 1927.07 833.445 1917.88 826.414 1906.23C819.453 1894.51 815.973 1881.19 815.973 1866.28V1721.82H842.394V1864.15C842.394 1874.8 844.737 1884.28 849.425 1892.59C854.112 1900.83 860.789 1907.33 869.453 1912.09C878.189 1916.78 888.629 1919.12 900.774 1919.12C912.919 1919.12 923.36 1916.78 932.095 1912.09C940.831 1907.33 947.507 1900.83 952.124 1892.59C956.811 1884.28 959.155 1874.8 959.155 1864.15V1721.82ZM1213.9 1790H1187.48C1185.92 1782.4 1183.19 1775.72 1179.28 1769.97C1175.45 1764.22 1170.76 1759.39 1165.22 1755.48C1159.75 1751.51 1153.68 1748.52 1147 1746.53C1140.33 1744.55 1133.36 1743.55 1126.12 1743.55C1112.91 1743.55 1100.94 1746.89 1090.22 1753.57C1079.57 1760.24 1071.08 1770.08 1064.76 1783.08C1058.51 1796.07 1055.38 1812.02 1055.38 1830.91C1055.38 1849.8 1058.51 1865.75 1064.76 1878.74C1071.08 1891.74 1079.57 1901.58 1090.22 1908.25C1100.94 1914.93 1112.91 1918.27 1126.12 1918.27C1133.36 1918.27 1140.33 1917.27 1147 1915.28C1153.68 1913.3 1159.75 1910.35 1165.22 1906.44C1170.76 1902.46 1175.45 1897.6 1179.28 1891.85C1183.19 1886.02 1185.92 1879.35 1187.48 1871.82H1213.9C1211.92 1882.97 1208.29 1892.95 1203.04 1901.75C1197.78 1910.56 1191.25 1918.05 1183.44 1924.23C1175.62 1930.34 1166.85 1934.99 1157.12 1938.19C1147.46 1941.38 1137.13 1942.98 1126.12 1942.98C1107.51 1942.98 1090.96 1938.44 1076.48 1929.35C1061.99 1920.26 1050.59 1907.33 1042.28 1890.57C1033.97 1873.81 1029.81 1853.92 1029.81 1830.91C1029.81 1807.9 1033.97 1788.01 1042.28 1771.25C1050.59 1754.49 1061.99 1741.56 1076.48 1732.47C1090.96 1723.38 1107.51 1718.84 1126.12 1718.84C1137.13 1718.84 1147.46 1720.43 1157.12 1723.63C1166.85 1726.83 1175.62 1731.51 1183.44 1737.69C1191.25 1743.8 1197.78 1751.26 1203.04 1760.06C1208.29 1768.8 1211.92 1778.78 1213.9 1790ZM1115.04 1940.85H1135.92L1134.22 1949.38C1139.76 1950.23 1144.84 1952.54 1149.45 1956.3C1154.07 1960.13 1156.38 1966.21 1156.38 1974.52C1156.38 1983.68 1152.58 1991.14 1144.98 1996.89C1137.45 2002.71 1126.33 2005.62 1111.63 2005.62L1110.78 1989.01C1117.38 1989.01 1122.85 1987.94 1127.19 1985.81C1131.59 1983.75 1133.79 1980.27 1133.79 1975.37C1133.79 1970.47 1131.98 1967.13 1128.36 1965.36C1124.74 1963.58 1118.88 1962.37 1110.78 1961.73L1115.04 1940.85ZM1440.69 1830.91C1440.69 1853.92 1436.53 1873.81 1428.22 1890.57C1419.91 1907.33 1408.52 1920.26 1394.03 1929.35C1379.54 1938.44 1362.99 1942.98 1344.38 1942.98C1325.77 1942.98 1309.23 1938.44 1294.74 1929.35C1280.25 1920.26 1268.85 1907.33 1260.54 1890.57C1252.23 1873.81 1248.08 1853.92 1248.08 1830.91C1248.08 1807.9 1252.23 1788.01 1260.54 1771.25C1268.85 1754.49 1280.25 1741.56 1294.74 1732.47C1309.23 1723.38 1325.77 1718.84 1344.38 1718.84C1362.99 1718.84 1379.54 1723.38 1394.03 1732.47C1408.52 1741.56 1419.91 1754.49 1428.22 1771.25C1436.53 1788.01 1440.69 1807.9 1440.69 1830.91ZM1415.12 1830.91C1415.12 1812.02 1411.96 1796.07 1405.64 1783.08C1399.39 1770.08 1390.9 1760.24 1380.18 1753.57C1369.52 1746.89 1357.59 1743.55 1344.38 1743.55C1331.17 1743.55 1319.2 1746.89 1308.48 1753.57C1297.83 1760.24 1289.34 1770.08 1283.02 1783.08C1276.77 1796.07 1273.64 1812.02 1273.64 1830.91C1273.64 1849.8 1276.77 1865.75 1283.02 1878.74C1289.34 1891.74 1297.83 1901.58 1308.48 1908.25C1319.2 1914.93 1331.17 1918.27 1344.38 1918.27C1357.59 1918.27 1369.52 1914.93 1380.18 1908.25C1390.9 1901.58 1399.39 1891.74 1405.64 1878.74C1411.96 1865.75 1415.12 1849.8 1415.12 1830.91ZM1311.57 1700.09L1291.97 1699.23C1291.97 1688.37 1295.06 1679.49 1301.24 1672.6C1307.49 1665.64 1315.19 1662.16 1324.35 1662.16C1328.4 1662.16 1331.99 1662.87 1335.11 1664.29C1338.24 1665.64 1341.22 1667.2 1344.06 1668.98C1346.9 1670.75 1349.82 1672.35 1352.8 1673.77C1355.85 1675.12 1359.3 1675.8 1363.13 1675.8C1367.18 1675.8 1370.59 1674.23 1373.36 1671.11C1376.2 1667.91 1377.62 1664.08 1377.62 1659.6L1396.8 1661.31C1396.8 1672.39 1393.67 1681.19 1387.42 1687.73C1381.24 1694.26 1373.57 1697.53 1364.41 1697.53C1359.51 1697.53 1355.46 1696.85 1352.27 1695.5C1349.07 1694.08 1346.23 1692.49 1343.74 1690.71C1341.26 1688.93 1338.63 1687.37 1335.86 1686.02C1333.09 1684.6 1329.68 1683.89 1325.63 1683.89C1321.58 1683.89 1318.21 1685.49 1315.51 1688.69C1312.88 1691.81 1311.57 1695.61 1311.57 1700.09ZM1485.11 1940V1721.82H1616.79V1745.26H1511.53V1818.98H1609.97V1842.41H1511.53V1916.56H1618.49V1940H1485.11ZM1783.73 1776.36C1782.45 1765.57 1777.27 1757.19 1768.17 1751.22C1759.08 1745.26 1747.93 1742.27 1734.72 1742.27C1725.06 1742.27 1716.61 1743.84 1709.37 1746.96C1702.19 1750.09 1696.58 1754.38 1692.54 1759.85C1688.56 1765.32 1686.57 1771.53 1686.57 1778.49C1686.57 1784.32 1687.95 1789.33 1690.72 1793.52C1693.57 1797.63 1697.19 1801.08 1701.59 1803.85C1705.99 1806.55 1710.61 1808.79 1715.44 1810.56C1720.27 1812.27 1724.71 1813.65 1728.76 1814.72L1750.92 1820.68C1756.6 1822.17 1762.92 1824.23 1769.88 1826.86C1776.91 1829.49 1783.62 1833.08 1790.01 1837.62C1796.48 1842.1 1801.8 1847.85 1805.99 1854.88C1810.18 1861.91 1812.28 1870.54 1812.28 1880.77C1812.28 1892.56 1809.19 1903.21 1803.01 1912.73C1796.9 1922.24 1787.95 1929.81 1776.16 1935.42C1764.45 1941.03 1750.21 1943.84 1733.44 1943.84C1717.82 1943.84 1704.29 1941.31 1692.86 1936.27C1681.49 1931.23 1672.54 1924.2 1666.01 1915.18C1659.55 1906.16 1655.89 1895.68 1655.04 1883.75H1682.31C1683.02 1891.99 1685.79 1898.81 1690.62 1904.2C1695.52 1909.53 1701.7 1913.51 1709.16 1916.14C1716.68 1918.69 1724.78 1919.97 1733.44 1919.97C1743.53 1919.97 1752.59 1918.34 1760.61 1915.07C1768.64 1911.73 1774.99 1907.12 1779.68 1901.22C1784.37 1895.26 1786.71 1888.3 1786.71 1880.34C1786.71 1873.1 1784.69 1867.2 1780.64 1862.66C1776.59 1858.11 1771.26 1854.42 1764.66 1851.58C1758.05 1848.74 1750.92 1846.25 1743.25 1844.12L1716.4 1836.45C1699.35 1831.55 1685.86 1824.55 1675.92 1815.46C1665.97 1806.37 1661 1794.47 1661 1779.77C1661 1767.56 1664.3 1756.9 1670.91 1747.81C1677.59 1738.65 1686.53 1731.55 1697.76 1726.51C1709.05 1721.39 1721.66 1718.84 1735.58 1718.84C1749.64 1718.84 1762.14 1721.36 1773.08 1726.4C1784.01 1731.37 1792.68 1738.19 1799.07 1746.85C1805.53 1755.52 1808.94 1765.36 1809.3 1776.36H1783.73ZM1940.09 1940V1721.82H2013.82C2030.93 1721.82 2044.92 1724.91 2055.79 1731.09C2066.73 1737.19 2074.82 1745.47 2080.08 1755.91C2085.34 1766.35 2087.96 1778 2087.96 1790.85C2087.96 1803.71 2085.34 1815.39 2080.08 1825.9C2074.9 1836.41 2066.87 1844.79 2056 1851.04C2045.14 1857.22 2031.22 1860.31 2014.24 1860.31H1961.4V1836.88H2013.39C2025.11 1836.88 2034.52 1834.85 2041.62 1830.8C2048.72 1826.75 2053.87 1821.29 2057.07 1814.4C2060.34 1807.44 2061.97 1799.59 2061.97 1790.85C2061.97 1782.12 2060.34 1774.3 2057.07 1767.41C2053.87 1760.53 2048.69 1755.13 2041.51 1751.22C2034.34 1747.24 2024.82 1745.26 2012.96 1745.26H1966.51V1940H1940.09ZM2117.21 1940H2089.51L2169.62 1721.82H2196.89L2277.01 1940H2249.31L2184.11 1756.34H2182.41L2117.21 1940ZM2127.43 1854.77H2239.08V1878.21H2127.43V1854.77ZM2310.99 1940V1721.82H2384.71C2401.76 1721.82 2415.75 1724.73 2426.69 1730.55C2437.63 1736.31 2445.72 1744.23 2450.98 1754.31C2456.23 1764.4 2458.86 1775.87 2458.86 1788.72C2458.86 1801.58 2456.23 1812.98 2450.98 1822.92C2445.72 1832.86 2437.66 1840.67 2426.8 1846.36C2415.93 1851.97 2402.04 1854.77 2385.14 1854.77H2325.48V1830.91H2384.29C2395.94 1830.91 2405.31 1829.2 2412.41 1825.8C2419.59 1822.39 2424.77 1817.56 2427.97 1811.31C2431.23 1804.99 2432.87 1797.46 2432.87 1788.72C2432.87 1779.99 2431.23 1772.35 2427.97 1765.82C2424.7 1759.28 2419.48 1754.24 2412.31 1750.69C2405.13 1747.07 2395.65 1745.26 2383.86 1745.26H2337.41V1940H2310.99ZM2413.69 1841.99L2467.38 1940H2436.7L2383.86 1841.99H2413.69ZM2511.84 1940H2484.14L2564.25 1721.82H2591.52L2671.64 1940H2643.94L2578.74 1756.34H2577.03L2511.84 1940ZM2522.06 1854.77H2633.71V1878.21H2522.06V1854.77ZM2790 1940V1721.82H2921.67V1745.26H2816.42V1818.98H2914.85V1842.41H2816.42V1916.56H2923.38V1940H2790ZM2969.29 1721.82H3000.83L3074.98 1902.93H3077.53L3151.68 1721.82H3183.21V1940H3158.5V1774.23H3156.37L3088.19 1940H3064.32L2996.14 1774.23H2994.01V1940H2969.29V1721.82ZM3236.19 1940V1721.82H3309.91C3327.03 1721.82 3341.02 1724.91 3351.88 1731.09C3362.82 1737.19 3370.92 1745.47 3376.17 1755.91C3381.43 1766.35 3384.06 1778 3384.06 1790.85C3384.06 1803.71 3381.43 1815.39 3376.17 1825.9C3370.99 1836.41 3362.96 1844.79 3352.1 1851.04C3341.23 1857.22 3327.31 1860.31 3310.34 1860.31H3257.49V1836.88H3309.48C3321.2 1836.88 3330.61 1834.85 3337.72 1830.8C3344.82 1826.75 3349.97 1821.29 3353.16 1814.4C3356.43 1807.44 3358.06 1799.59 3358.06 1790.85C3358.06 1782.12 3356.43 1774.3 3353.16 1767.41C3349.97 1760.53 3344.78 1755.13 3337.61 1751.22C3330.44 1747.24 3320.92 1745.26 3309.06 1745.26H3262.61V1940H3236.19ZM3426.62 1940V1721.82H3500.34C3517.38 1721.82 3531.38 1724.73 3542.31 1730.55C3553.25 1736.31 3561.35 1744.23 3566.6 1754.31C3571.86 1764.4 3574.49 1775.87 3574.49 1788.72C3574.49 1801.58 3571.86 1812.98 3566.6 1822.92C3561.35 1832.86 3553.29 1840.67 3542.42 1846.36C3531.55 1851.97 3517.67 1854.77 3500.77 1854.77H3441.11V1830.91H3499.91C3511.56 1830.91 3520.94 1829.2 3528.04 1825.8C3535.21 1822.39 3540.4 1817.56 3543.59 1811.31C3546.86 1804.99 3548.49 1797.46 3548.49 1788.72C3548.49 1779.99 3546.86 1772.35 3543.59 1765.82C3540.33 1759.28 3535.1 1754.24 3527.93 1750.69C3520.76 1747.07 3511.28 1745.26 3499.49 1745.26H3453.04V1940H3426.62ZM3529.32 1841.99L3583.01 1940H3552.33L3499.49 1841.99H3529.32ZM3618.51 1940V1721.82H3750.19V1745.26H3644.93V1818.98H3743.37V1842.41H3644.93V1916.56H3751.89V1940H3618.51ZM3917.13 1776.36C3915.85 1765.57 3910.66 1757.19 3901.57 1751.22C3892.48 1745.26 3881.33 1742.27 3868.12 1742.27C3858.46 1742.27 3850.01 1743.84 3842.77 1746.96C3835.59 1750.09 3829.98 1754.38 3825.93 1759.85C3821.96 1765.32 3819.97 1771.53 3819.97 1778.49C3819.97 1784.32 3821.35 1789.33 3824.12 1793.52C3826.96 1797.63 3830.59 1801.08 3834.99 1803.85C3839.39 1806.55 3844.01 1808.79 3848.84 1810.56C3853.67 1812.27 3858.11 1813.65 3862.16 1814.72L3884.31 1820.68C3890 1822.17 3896.32 1824.23 3903.28 1826.86C3910.31 1829.49 3917.02 1833.08 3923.41 1837.62C3929.88 1842.1 3935.2 1847.85 3939.39 1854.88C3943.58 1861.91 3945.68 1870.54 3945.68 1880.77C3945.68 1892.56 3942.59 1903.21 3936.41 1912.73C3930.3 1922.24 3921.35 1929.81 3909.56 1935.42C3897.84 1941.03 3883.6 1943.84 3866.84 1943.84C3851.22 1943.84 3837.69 1941.31 3826.25 1936.27C3814.89 1931.23 3805.94 1924.2 3799.41 1915.18C3792.94 1906.16 3789.29 1895.68 3788.43 1883.75H3815.71C3816.42 1891.99 3819.19 1898.81 3824.02 1904.2C3828.92 1909.53 3835.1 1913.51 3842.55 1916.14C3850.08 1918.69 3858.18 1919.97 3866.84 1919.97C3876.93 1919.97 3885.98 1918.34 3894.01 1915.07C3902.03 1911.73 3908.39 1907.12 3913.08 1901.22C3917.77 1895.26 3920.11 1888.3 3920.11 1880.34C3920.11 1873.1 3918.09 1867.2 3914.04 1862.66C3909.99 1858.11 3904.66 1854.42 3898.06 1851.58C3891.45 1848.74 3884.31 1846.25 3876.64 1844.12L3849.8 1836.45C3832.75 1831.55 3819.26 1824.55 3809.31 1815.46C3799.37 1806.37 3794.4 1794.47 3794.4 1779.77C3794.4 1767.56 3797.7 1756.9 3804.31 1747.81C3810.98 1738.65 3819.93 1731.55 3831.15 1726.51C3842.45 1721.39 3855.05 1718.84 3868.97 1718.84C3883.04 1718.84 3895.54 1721.36 3906.47 1726.4C3917.41 1731.37 3926.08 1738.19 3932.47 1746.85C3938.93 1755.52 3942.34 1765.36 3942.7 1776.36H3917.13ZM3998.07 1940H3970.37L4050.48 1721.82H4077.75L4157.87 1940H4130.17L4064.97 1756.34H4063.27L3998.07 1940ZM4008.29 1854.77H4119.94V1878.21H4008.29V1854.77ZM4311.17 1776.36C4309.89 1765.57 4304.71 1757.19 4295.62 1751.22C4286.53 1745.26 4275.37 1742.27 4262.16 1742.27C4252.51 1742.27 4244.05 1743.84 4236.81 1746.96C4229.64 1750.09 4224.03 1754.38 4219.98 1759.85C4216 1765.32 4214.01 1771.53 4214.01 1778.49C4214.01 1784.32 4215.4 1789.33 4218.17 1793.52C4221.01 1797.63 4224.63 1801.08 4229.03 1803.85C4233.44 1806.55 4238.05 1808.79 4242.88 1810.56C4247.71 1812.27 4252.15 1813.65 4256.2 1814.72L4278.36 1820.68C4284.04 1822.17 4290.36 1824.23 4297.32 1826.86C4304.35 1829.49 4311.06 1833.08 4317.46 1837.62C4323.92 1842.1 4329.25 1847.85 4333.44 1854.88C4337.63 1861.91 4339.72 1870.54 4339.72 1880.77C4339.72 1892.56 4336.63 1903.21 4330.45 1912.73C4324.34 1922.24 4315.4 1929.81 4303.61 1935.42C4291.89 1941.03 4277.65 1943.84 4260.89 1943.84C4245.26 1943.84 4231.73 1941.31 4220.3 1936.27C4208.93 1931.23 4199.98 1924.2 4193.45 1915.18C4186.99 1906.16 4183.33 1895.68 4182.48 1883.75H4209.75C4210.46 1891.99 4213.23 1898.81 4218.06 1904.2C4222.96 1909.53 4229.14 1913.51 4236.6 1916.14C4244.12 1918.69 4252.22 1919.97 4260.89 1919.97C4270.97 1919.97 4280.03 1918.34 4288.05 1915.07C4296.08 1911.73 4302.43 1907.12 4307.12 1901.22C4311.81 1895.26 4314.15 1888.3 4314.15 1880.34C4314.15 1873.1 4312.13 1867.2 4308.08 1862.66C4304.03 1858.11 4298.71 1854.42 4292.1 1851.58C4285.5 1848.74 4278.36 1846.25 4270.69 1844.12L4243.84 1836.45C4226.8 1831.55 4213.3 1824.55 4203.36 1815.46C4193.41 1806.37 4188.44 1794.47 4188.44 1779.77C4188.44 1767.56 4191.75 1756.9 4198.35 1747.81C4205.03 1738.65 4213.98 1731.55 4225.2 1726.51C4236.49 1721.39 4249.1 1718.84 4263.02 1718.84C4277.08 1718.84 4289.58 1721.36 4300.52 1726.4C4311.45 1731.37 4320.12 1738.19 4326.51 1746.85C4332.97 1755.52 4336.38 1765.36 4336.74 1776.36H4311.17Z" fill="black"/>
</g>
<defs>
<clipPath id="clip0_27_21">
<rect width="4758" height="2011" fill="black"/>
</clipPath>
</defs>
</svg>
