<svg width="1482" height="1497" viewBox="0 0 1482 1497" fill="none" xmlns="http://www.w3.org/2000/svg">
<path d="M945.131 0C960.319 -0.00747107 972.637 12.2986 972.645 27.4863C972.645 28.6881 972.568 29.872 972.419 31.0332L969.79 412.248L1027.83 411.536L1029.89 168.485C1029.97 158.064 1035.85 149.045 1044.43 144.453L1082.18 102.349C1083.5 99.305 1085.43 96.4437 1087.96 93.9346L1088.71 93.1924C1099.5 82.5049 1117.24 82.25 1128.33 92.623L1473.18 415.086C1484.27 425.459 1484.52 442.532 1473.73 453.22L1472.98 453.962C1465.82 461.048 1455.61 463.545 1446.31 461.402L1082.37 465.87L1081.73 541.373L1441.44 541.781C1442.89 541.552 1444.38 541.436 1445.89 541.443C1458.06 541.5 1468.35 549.456 1471.92 560.43C1472.86 563.219 1473.38 566.208 1473.38 569.318C1473.37 570.199 1473.33 571.071 1473.25 571.931L1470.1 1246.44C1470.05 1256.25 1464.88 1264.83 1457.12 1269.66C1456.79 1269.97 1456.44 1270.27 1456.08 1270.57L1396.22 1320.09C1393.7 1322.17 1390.93 1323.72 1388.02 1324.77C1387.14 1326.05 1386.13 1327.27 1385 1328.42C1374.34 1339.23 1356.92 1339.35 1346.11 1328.69L1037.56 1024.46C1036.56 1023.47 1035.65 1022.43 1034.83 1021.34C1027.54 1016.34 1022.78 1007.92 1022.86 998.409L1026.26 596.31L968.521 596.243L966.161 938.502C966.056 953.689 953.66 965.916 938.473 965.812C934.903 965.787 931.497 965.083 928.376 963.823L572.602 964.17L572.258 1033.61L960.354 1036.9C965.316 1036.95 969.961 1038.3 973.96 1040.63C977.555 1042.04 980.911 1044.22 983.763 1047.18L1366.13 1444.52C1376.66 1455.47 1376.32 1472.87 1365.38 1483.41C1365.37 1483.42 1365.35 1483.43 1365.34 1483.44C1360.47 1491.2 1351.85 1496.36 1342.02 1496.35L543.474 1496C533.292 1495.99 524.406 1490.46 519.655 1482.23C516.758 1477.85 515.081 1472.59 515.109 1466.95L516.987 1088.14L451.23 1087.58L448.29 1339.52C448.193 1347.85 444.401 1355.27 438.491 1360.25C438.159 1360.64 437.816 1361.03 437.458 1361.4L369.823 1432.88C366.599 1436.28 362.71 1438.68 358.55 1440.07C348.959 1443.71 337.709 1441.81 329.789 1434.26L87.8828 1203.59C79.7252 1198.77 74.2797 1189.86 74.3516 1179.7L75.1885 1061.5C74.9482 1060 74.8285 1058.45 74.8418 1056.88C74.8555 1055.27 75.008 1053.69 75.2871 1052.16C76.0821 1037.59 88.1975 1026.08 102.94 1026.18C107.788 1026.22 112.332 1027.5 116.271 1029.73L396.874 1032.12L397.665 964.34L32.2168 964.696C30.7692 964.93 29.2843 965.053 27.7705 965.052C19.3724 965.042 11.8589 961.268 6.82129 955.329C2.58078 950.496 0.0068523 944.163 0 937.229C-0.00137083 935.822 0.103196 934.439 0.305664 933.089L1.08398 234.687C-0.87317 225.336 2.10349 215.227 9.76758 208.439L66.4775 158.219C72.7015 152.707 80.7265 150.528 88.3672 151.55C95.0994 151.722 101.784 154.351 106.959 159.451L441.81 489.435C451.419 493.813 458.048 503.553 457.917 514.791L453.311 909.286L517.874 909.224L519.563 568.486C519.6 561.071 522.568 554.357 527.364 549.435C532.387 544.092 539.522 540.758 547.435 540.767L913.899 541.182L914.405 467.933L505.09 472.959C501.308 473.639 497.414 473.523 493.677 472.614C485.314 471.134 478.236 465.872 474.303 458.638L194.271 167.258C186.159 162.596 180.631 153.912 180.457 143.878L178.535 33.2812C178.186 31.5342 178.001 29.7275 178 27.8779C177.993 12.6901 190.299 0.371729 205.487 0.364258L945.131 0ZM570.238 1441.01L1286.72 1441.33L950.388 1091.82L571.985 1088.61L570.238 1441.01ZM129.441 1167.22L348.145 1375.77L393.421 1327.92L396.232 1087.11L130.024 1084.85L129.441 1167.22ZM1077.96 987.057L1367.46 1272.5L1415.16 1233.04L1418.13 596.755L1081.26 596.372L1077.96 987.057ZM452.669 964.287L451.872 1032.58L517.26 1033.14L517.601 964.224L452.669 964.287ZM56.0771 240.895L55.3311 909.674L398.307 909.34L402.757 528.167L85.1348 215.162L56.0771 240.895ZM572.874 909.17L911.364 908.84L913.521 596.182L574.428 595.797L572.874 909.17ZM969.41 467.257L968.9 541.244L1026.73 541.311L1027.36 466.546L969.41 467.257ZM233.926 55.3496L235.231 130.507L511.412 417.877L914.784 412.924L917.252 55.0137L233.926 55.3496ZM1084.77 181.851L1082.84 410.861L1382.71 407.18L1110.75 152.872L1084.77 181.851Z" fill="white"/>
</svg>
